<svg width="100" height="40" viewBox="0 0 100 40" fill="none" xmlns="http://www.w3.org/2000/svg">
<path d="M9.84033 29.6733C8.92367 29.6733 8.16097 29.4621 7.55225 29.0396C6.94352 28.617 6.48519 28.0011 6.17725 27.1919C5.87646 26.3755 5.72607 25.3908 5.72607 24.2378V15.9985C5.72607 15.132 5.79769 14.3514 5.94092 13.6567C6.08415 12.9621 6.31689 12.3677 6.63916 11.8735C6.96143 11.3794 7.39111 10.9998 7.92822 10.7349C8.46533 10.4699 9.12777 10.3374 9.91553 10.3374C10.6317 10.3374 11.2404 10.4556 11.7417 10.6919C12.2502 10.9211 12.6619 11.2541 12.9771 11.6909C13.2993 12.1278 13.5321 12.6577 13.6753 13.2808C13.8257 13.8966 13.9009 14.5913 13.9009 15.3647V17.9644H11.1187V15.5474C11.1187 14.6164 11.0399 13.9325 10.8823 13.4956C10.7248 13.0516 10.4097 12.8296 9.93701 12.8296C9.41423 12.8296 9.06331 13.0695 8.88428 13.5493C8.7124 14.022 8.62646 14.6844 8.62646 15.5366V24.3667C8.62646 25.0256 8.66227 25.5662 8.73389 25.9888C8.81266 26.4041 8.94157 26.7121 9.12061 26.9126C9.29964 27.106 9.55029 27.2026 9.87256 27.2026C10.3595 27.2026 10.689 26.9735 10.8608 26.5151C11.0327 26.0568 11.1187 25.3299 11.1187 24.3345V21.6274H13.9438V24.3022C13.9438 25.4982 13.8042 26.4972 13.5249 27.2993C13.2456 28.0942 12.8016 28.6886 12.1929 29.0825C11.5913 29.4764 10.8071 29.6733 9.84033 29.6733Z" fill="black"/>
<path d="M20.3569 29.6733C19.3758 29.6733 18.5737 29.4657 17.9507 29.0503C17.3348 28.6349 16.88 28.019 16.5864 27.2026C16.2928 26.3862 16.146 25.3765 16.146 24.1733V15.5259C16.146 14.4373 16.2892 13.5063 16.5757 12.7329C16.8621 11.9595 17.3169 11.3651 17.9399 10.9497C18.563 10.5343 19.3794 10.3267 20.3892 10.3267C21.1483 10.3267 21.7892 10.4448 22.312 10.6812C22.8348 10.9175 23.2573 11.2612 23.5796 11.7124C23.9019 12.1564 24.1346 12.7007 24.2778 13.3452C24.4282 13.9826 24.5034 14.7095 24.5034 15.5259V24.1733C24.5034 25.3765 24.3602 26.3862 24.0737 27.2026C23.7944 28.019 23.3504 28.6349 22.7417 29.0503C22.133 29.4657 21.3381 29.6733 20.3569 29.6733ZM20.3569 27.1812C20.715 27.1812 20.9836 27.0737 21.1626 26.8589C21.3416 26.644 21.4598 26.3182 21.5171 25.8813C21.5815 25.4373 21.6138 24.8787 21.6138 24.2056V15.397C21.6138 14.5734 21.535 13.9396 21.3774 13.4956C21.2271 13.0444 20.8976 12.8188 20.3892 12.8188C19.8664 12.8188 19.5119 13.0373 19.3257 13.4741C19.1395 13.9038 19.0464 14.5412 19.0464 15.3862V24.2056C19.0464 24.8931 19.075 25.4588 19.1323 25.9028C19.1968 26.3397 19.3221 26.6619 19.5083 26.8696C19.7017 27.0773 19.9845 27.1812 20.3569 27.1812Z" fill="black"/>
<path d="M27.1245 29.4585V10.5522H30.7017L33.3872 24.3667L35.9116 10.5522H39.5103V29.4585H36.9429V22.4116L37.0503 15.9448L34.5044 29.3726H32.2163L29.563 15.9448L29.6704 22.4116V29.4585H27.1245Z" fill="black"/>
<path d="M42.3569 29.4585V10.5522H46.6968C47.4487 10.5522 48.0718 10.6668 48.5659 10.896C49.0672 11.1252 49.4611 11.4653 49.7476 11.9165C50.034 12.3677 50.2381 12.9263 50.3599 13.5923C50.4816 14.2511 50.5425 15.0138 50.5425 15.8804V16.2778C50.5425 17.4953 50.4351 18.5337 50.2202 19.3931C50.0125 20.2453 49.6366 20.8934 49.0923 21.3374C48.548 21.7814 47.7817 22.0034 46.7935 22.0034H45.2358V29.4585H42.3569ZM45.2358 19.6294H46.2241C46.6466 19.6294 46.9618 19.522 47.1694 19.3071C47.3771 19.0923 47.5132 18.7378 47.5776 18.2437C47.6493 17.7424 47.6851 17.0763 47.6851 16.2456V15.8804C47.6779 14.8563 47.5884 14.0828 47.4165 13.5601C47.2446 13.0301 46.8543 12.7651 46.2456 12.7651H45.2358V19.6294Z" fill="black"/>
<path d="M51.0581 29.4585L53.7544 10.5522H57.5571L60.4253 29.4585H57.7397L57.2886 26.0854H54.2378L53.8296 29.4585H51.0581ZM54.5171 23.7759H56.9878L55.7202 14.2798H55.6772L54.5171 23.7759Z" fill="black"/>
<path d="M62.144 29.4585V10.5522H64.3999L68.4067 21.896L68.2026 16.7397V10.5522H70.7915V29.4585H68.7505L64.6362 17.7173L64.7974 22.6802V29.4585H62.144Z" fill="black"/>
<path d="M73.7026 29.4585V10.5522H76.5815V29.4585H73.7026Z" fill="black"/>
<path d="M79.4819 29.4585V10.5522H85.8198V13.0337H82.3608V18.5337H85.6479V20.9614H82.3608V26.9771H85.9487V29.4585H79.4819Z" fill="black"/>
<path d="M87.3345 29.4585V26.9019L91.2554 13.0337H87.689V10.5522H94.2739V12.8833L90.353 26.9771H94.188V29.4585H87.3345Z" fill="black"/>
</svg>
